<svg width="28" height="28" viewBox="0 0 28 28" fill="none" xmlns="http://www.w3.org/2000/svg">
<g clip-path="url(#clip0_795_600)">
<path d="M10.7334 9.33325H9.80005V10.2666H10.7334V9.33325Z" fill="white"/>
<path d="M10.7334 11.2H9.80005V12.1333H10.7334V11.2Z" fill="white"/>
<path d="M10.7334 13.0667H9.80005V14H10.7334V13.0667Z" fill="white"/>
<path d="M10.7334 14.9333H9.80005V15.8667H10.7334V14.9333Z" fill="white"/>
<path d="M12.6 9.33325H11.6666V10.2666H12.6V9.33325Z" fill="white"/>
<path d="M12.6 11.2H11.6666V12.1333H12.6V11.2Z" fill="white"/>
<path d="M12.6 13.0667H11.6666V14H12.6V13.0667Z" fill="white"/>
<path d="M12.6 14.9333H11.6666V15.8667H12.6V14.9333Z" fill="white"/>
<path d="M14.4667 9.33325H13.5333V10.2666H14.4667V9.33325Z" fill="white"/>
<path d="M14.4667 11.2H13.5333V12.1333H14.4667V11.2Z" fill="white"/>
<path d="M14.4667 13.0667H13.5333V14H14.4667V13.0667Z" fill="white"/>
<path d="M14.4667 14.9333H13.5333V15.8667H14.4667V14.9333Z" fill="white"/>
<path d="M16.3334 9.33325H15.4V10.2666H16.3334V9.33325Z" fill="white"/>
<path d="M12.6 7.46655H11.6666V8.39989H12.6V7.46655Z" fill="white"/>
<path d="M14.4667 7.46655H13.5333V8.39989H14.4667V7.46655Z" fill="white"/>
<path d="M16.3334 7.46655H15.4V8.39989H16.3334V7.46655Z" fill="white"/>
<path d="M16.3334 11.2H15.4V12.1333H16.3334V11.2Z" fill="white"/>
<path d="M16.3334 13.0667H15.4V14H16.3334V13.0667Z" fill="white"/>
<path d="M16.3334 14.9333H15.4V15.8667H16.3334V14.9333Z" fill="white"/>
<path d="M18.2001 9.33325H17.2667V10.2666H18.2001V9.33325Z" fill="white"/>
<path d="M18.2001 11.2H17.2667V12.1333H18.2001V11.2Z" fill="white"/>
<path d="M18.2001 13.0667H17.2667V14H18.2001V13.0667Z" fill="white"/>
<path d="M18.2001 14.9333H17.2667V15.8667H18.2001V14.9333Z" fill="white"/>
<path d="M27.5339 7C27.5337 7 27.5335 7 27.5333 7H20.5333V0.466667C20.5335 0.209067 20.3248 0.00017511 20.0672 1.09967e-07C20.067 1.09967e-07 20.0668 1.09967e-07 20.0667 1.09967e-07H7.93333C7.67573 -0.00017489 7.46684 0.208542 7.46667 0.466142C7.46667 0.466317 7.46667 0.466492 7.46667 0.466667V7H0.466667C0.209067 6.99983 0.00017511 7.20854 1.09967e-07 7.46614C1.09967e-07 7.46632 1.09967e-07 7.46649 1.09967e-07 7.46667V24.2667C-0.00017489 24.5243 0.208542 24.7332 0.466142 24.7333C0.466317 24.7333 0.466492 24.7333 0.466667 24.7333H1.44218C1.41511 24.8874 1.40099 25.0436 1.4 25.2V27.5333C1.39983 27.7909 1.60854 27.9998 1.86614 28C1.86632 28 1.86649 28 1.86667 28H26.1333C26.3909 28.0002 26.5998 27.7915 26.6 27.5339C26.6 27.5337 26.6 27.5335 26.6 27.5333V25.2C26.5991 25.0436 26.585 24.8874 26.5578 24.7333H27.5333C27.7909 24.7335 27.9998 24.5248 28 24.2672C28 24.267 28 24.2668 28 24.2667V7.46667C28.0002 7.20907 27.7915 7.00017 27.5339 7ZM20.0667 20.0667C20.0667 20.5822 19.6488 21 19.1333 21C18.6178 21 18.2 20.5822 18.2 20.0667C18.2 19.5512 18.6178 19.1333 19.1333 19.1333C19.6485 19.134 20.066 19.5515 20.0667 20.0667ZM8.86667 19.1333C9.38216 19.1333 9.8 19.5512 9.8 20.0667C9.8 20.5822 9.38216 21 8.86667 21C8.35118 21 7.93333 20.5822 7.93333 20.0667C7.93398 19.5515 8.35147 19.134 8.86667 19.1333ZM6.06667 27.0667H2.33333V25.2C2.33333 24.1691 3.16908 23.3333 4.2 23.3333C5.23093 23.3333 6.06667 24.1691 6.06667 25.2V27.0667ZM3.26667 21.4667C3.26667 20.9512 3.68451 20.5333 4.2 20.5333C4.71549 20.5333 5.13333 20.9512 5.13333 21.4667C5.13333 21.9822 4.71549 22.4 4.2 22.4C3.6848 22.3994 3.26731 21.9819 3.26667 21.4667ZM6.13737 23.1831C5.96137 23.0134 5.76403 22.8673 5.5503 22.7486C6.26208 22.0029 6.23461 20.8213 5.48887 20.1094C4.74314 19.3976 3.56154 19.4251 2.8497 20.1709C2.16119 20.8921 2.16119 22.0273 2.8497 22.7485C2.40427 22.9958 2.0342 23.3591 1.77882 23.7999H0.933333V7.93333H7.46667V18.8449C6.82582 19.564 6.84746 20.6555 7.51637 21.3486C6.81637 21.7358 6.31476 22.4031 6.13737 23.1831ZM10.7333 27.0667H7V23.8C7 22.7691 7.83574 21.9333 8.86667 21.9333C9.89759 21.9333 10.7333 22.7691 10.7333 23.8V27.0667ZM16.3333 27.0667H11.6667V23.8C11.6667 22.5114 12.7114 21.4667 14 21.4667C15.2886 21.4667 16.3333 22.5114 16.3333 23.8V27.0667ZM12.6 19.1333C12.6 18.3601 13.2268 17.7333 14 17.7333C14.7732 17.7333 15.4 18.3601 15.4 19.1333C15.4 19.9065 14.7732 20.5333 14 20.5333C13.2271 20.5325 12.6008 19.9062 12.6 19.1333ZM16.8421 22.1955C16.5296 21.6446 16.0647 21.1958 15.5032 20.9029C16.4889 20.0727 16.6149 18.6006 15.7847 17.615C14.9545 16.6293 13.4825 16.5033 12.4968 17.3335C11.5112 18.1637 11.3851 19.6357 12.2153 20.6214C12.3009 20.723 12.3951 20.8172 12.4968 20.9029C11.9353 21.1958 11.4704 21.6446 11.1579 22.1955C10.9125 21.8455 10.5908 21.5559 10.217 21.3486C10.9324 20.6167 10.9191 19.4433 10.1872 18.7279C9.71588 18.2671 9.03543 18.0914 8.4 18.2663V0.933333H19.6V18.2663C19.4479 18.2243 19.2911 18.202 19.1333 18.2C18.1052 18.1973 17.2694 19.0286 17.2667 20.0568C17.2654 20.5379 17.4505 21.0009 17.783 21.3486C17.4092 21.5559 17.0875 21.8455 16.8421 22.1955ZM21 25.2V27.0667H17.2667V23.8C17.2667 22.7691 18.1024 21.9333 19.1333 21.9333C20.1643 21.9333 21 22.7691 21 23.8V25.2ZM25.6667 27.0667H21.9333V25.2C21.9333 24.1691 22.7691 23.3333 23.8 23.3333C24.8309 23.3333 25.6667 24.1691 25.6667 25.2V27.0667ZM22.8667 21.4667C22.8667 20.9512 23.2845 20.5333 23.8 20.5333C24.3155 20.5333 24.7333 20.9512 24.7333 21.4667C24.7333 21.9822 24.3155 22.4 23.8 22.4C23.2848 22.3994 22.8673 21.9819 22.8667 21.4667ZM27.0667 23.8H26.2212C25.9658 23.3592 25.5957 22.9958 25.1503 22.7486C25.8621 22.0029 25.8346 20.8213 25.0889 20.1094C24.3431 19.3976 23.1615 19.4251 22.4497 20.1709C21.7612 20.8921 21.7612 22.0273 22.4497 22.7485C22.236 22.8673 22.0386 23.0133 21.8626 23.1831C21.6853 22.403 21.1836 21.7357 20.4836 21.3485C21.1525 20.6555 21.1742 19.5639 20.5334 18.8449V7.93333H27.0667V23.8H27.0667Z" fill="white" stroke="white" stroke-width="0.5"/>
<path d="M22.8667 10.7334H21.9333V18.2001H22.8667V10.7334Z" fill="white"/>
<path d="M25.6666 10.7334H24.7333V18.2001H25.6666V10.7334Z" fill="white"/>
<path d="M3.26671 10.7334H2.33337V18.2001H3.26671V10.7334Z" fill="white"/>
<path d="M6.06663 10.7334H5.1333V18.2001H6.06663V10.7334Z" fill="white"/>
<path d="M16.8005 1.8667C16.8003 1.8667 16.8001 1.8667 16.7999 1.8667H11.1999C10.9423 1.86652 10.7335 2.07524 10.7333 2.33284C10.7333 2.33302 10.7333 2.33319 10.7333 2.33337V6.0667C10.7331 6.3243 10.9418 6.53319 11.1994 6.53337C11.1996 6.53337 11.1998 6.53337 11.1999 6.53337H16.7999C17.0575 6.53354 17.2664 6.32482 17.2666 6.06722C17.2666 6.06705 17.2666 6.06687 17.2666 6.0667V2.33337C17.2668 2.07577 17.0581 1.86687 16.8005 1.8667ZM16.3333 5.60003H11.6666V2.80003H16.3333V5.60003Z" fill="white"/>
</g>
<defs>
<clipPath id="clip0_795_600">
<rect width="28" height="28" fill="white"/>
</clipPath>
</defs>
</svg>
