<svg width="15" height="16" viewBox="0 0 15 16" fill="none" xmlns="http://www.w3.org/2000/svg">
<g clip-path="url(#clip0_1026_211)">
<path fill-rule="evenodd" clip-rule="evenodd" d="M3.01626 1.14844H10.6802C10.7769 1.14844 10.856 1.22754 10.856 1.32422V1.76836C10.856 1.86504 10.7769 1.94414 10.6802 1.94414H3.01626C2.91958 1.94414 2.84048 1.86504 2.84048 1.76836V1.32422C2.84048 1.22754 2.91958 1.14844 3.01626 1.14844ZM10.8326 4.28985V6.53789H13.5842C13.6518 6.53789 13.7183 6.54293 13.7833 6.55266L11.1823 4.35888C11.1273 4.31247 11.0654 4.28985 10.9934 4.28985H10.8326ZM0.988828 5.93484V13.075H2.12909V9.84744C2.12909 9.54785 2.40021 9.30349 2.73264 9.30349H3.93249C4.26492 9.30349 4.53603 9.54788 4.53603 9.84744V13.075H4.54884C4.6914 12.4452 5.11274 11.9211 5.67633 11.6394V5.93484H0.988828ZM4.76001 7.3045C4.76001 7.43341 4.65454 7.53888 4.52564 7.53888H2.13949C2.01059 7.53888 1.90512 7.43341 1.90512 7.3045V6.72507C1.90512 6.59616 2.01059 6.49069 2.13949 6.49069H4.52564C4.65454 6.49069 4.76001 6.59616 4.76001 6.72507V7.3045ZM3.33258 2.41286V4.20155H4.52763V4.07306H9.16884V4.51403H6.50651C6.56534 4.61115 6.59927 4.72482 6.59927 4.84605V4.98278H9.16884V5.21871C9.16884 5.33165 9.0767 5.42379 8.96376 5.42379H6.58526C6.53663 5.65242 6.3658 5.83726 6.14508 5.90599V11.4706C6.30035 11.4347 6.4621 11.4156 6.6283 11.4156C6.81788 11.4156 7.0072 11.4405 7.19013 11.4904V7.88783C7.19013 7.14536 7.7976 6.53789 8.54007 6.53789H10.3639V2.41286H3.33258ZM9.16881 3.60431H4.5276V3.36838C4.5276 3.25544 4.61974 3.1633 4.73268 3.1633H8.96373C9.07667 3.1633 9.16881 3.25541 9.16881 3.36838V3.60431ZM6.6283 11.8844C5.7097 11.8844 4.96503 12.629 4.96503 13.5476C4.96503 14.4662 5.7097 15.2109 6.6283 15.2109C7.5469 15.2109 8.29157 14.4662 8.29157 13.5476C8.29157 12.6291 7.5469 11.8844 6.6283 11.8844ZM6.86268 14.5721V14.6002C6.86268 14.7296 6.75773 14.8345 6.6283 14.8345C6.49887 14.8345 6.39393 14.7296 6.39393 14.6002V14.5672C6.13605 14.4974 5.93367 14.3157 5.86767 14.0509C5.83682 13.9255 5.91346 13.7988 6.03888 13.768C6.1643 13.7372 6.29095 13.8138 6.32177 13.9392C6.35707 14.0808 6.51264 14.1346 6.64456 14.1314C6.65716 14.1311 6.67471 14.1296 6.69712 14.1269C6.77209 14.1178 6.93067 14.0802 6.92833 13.9807L6.92643 13.9645C6.90993 13.8285 6.70078 13.7902 6.59229 13.7724C6.25509 13.717 5.93528 13.5504 5.91674 13.1674C5.90165 12.8569 6.10787 12.6194 6.39393 12.5322V12.4951C6.39393 12.3657 6.49887 12.2607 6.6283 12.2607C6.75773 12.2607 6.86268 12.3657 6.86268 12.4951V12.5292C7.06078 12.5879 7.2385 12.7242 7.33403 12.9517C7.38407 13.071 7.32794 13.2083 7.20861 13.2584C7.08929 13.3085 6.95197 13.2523 6.9019 13.133C6.8446 12.9965 6.70049 12.9428 6.5618 12.9707C6.47385 12.9884 6.37869 13.0434 6.38364 13.1454C6.38924 13.2611 6.57902 13.2964 6.66735 13.3109C7.01373 13.3678 7.34411 13.5192 7.39151 13.9095C7.39342 13.9253 7.39465 13.9454 7.39523 13.9697C7.403 14.2962 7.15758 14.5013 6.86268 14.5721ZM13.5842 7.00664H8.54007C8.05541 7.00664 7.65888 7.40317 7.65888 7.88783V11.681C8.3156 12.0443 8.76032 12.744 8.76032 13.5476C8.76032 14.1551 8.50626 14.7032 8.09862 15.0915C8.22864 15.1673 8.37949 15.2109 8.54007 15.2109H13.5842C14.0688 15.2109 14.4654 14.8144 14.4654 14.3297V7.88783C14.4654 7.40317 14.0688 7.00664 13.5842 7.00664ZM9.9796 13.7435C9.9796 13.8551 9.8886 13.9461 9.77701 13.9461H9.01989C8.9083 13.9461 8.81731 13.8551 8.81731 13.7435V13.4802C8.81731 13.3686 8.9083 13.2776 9.01989 13.2776H9.77701C9.88857 13.2776 9.9796 13.3686 9.9796 13.4802V13.7435ZM9.9796 12.323C9.9796 12.4345 9.8886 12.5256 9.77701 12.5256H9.01989C8.9083 12.5256 8.81731 12.4346 8.81731 12.323V12.0596C8.81731 11.9481 8.9083 11.8571 9.01989 11.8571H9.77701C9.88857 11.8571 9.9796 11.9481 9.9796 12.0596V12.323ZM9.9796 10.9024C9.9796 11.014 9.8886 11.105 9.77701 11.105H9.01989C8.9083 11.105 8.81731 11.014 8.81731 10.9024V10.639C8.81731 10.5275 8.9083 10.4365 9.01989 10.4365H9.77701C9.88857 10.4365 9.9796 10.5275 9.9796 10.639V10.9024ZM11.6433 13.7435C11.6433 13.8551 11.5523 13.9461 11.4407 13.9461H10.6835C10.572 13.9461 10.481 13.8551 10.481 13.7435V13.4802C10.481 13.3686 10.572 13.2776 10.6835 13.2776H11.4407C11.5523 13.2776 11.6433 13.3686 11.6433 13.4802V13.7435ZM11.6433 12.323C11.6433 12.4345 11.5523 12.5256 11.4407 12.5256H10.6835C10.572 12.5256 10.481 12.4346 10.481 12.323V12.0596C10.481 11.9481 10.572 11.8571 10.6835 11.8571H11.4407C11.5523 11.8571 11.6433 11.9481 11.6433 12.0596V12.323ZM11.6433 10.9024C11.6433 11.014 11.5523 11.105 11.4407 11.105H10.6835C10.572 11.105 10.481 11.014 10.481 10.9024V10.639C10.481 10.5275 10.572 10.4365 10.6835 10.4365H11.4407C11.5523 10.4365 11.6433 10.5275 11.6433 10.639V10.9024ZM13.3069 13.7435C13.3069 13.8551 13.2159 13.9461 13.1043 13.9461H12.3472C12.2356 13.9461 12.1446 13.8551 12.1446 13.7435V13.4802C12.1446 13.3686 12.2356 13.2776 12.3472 13.2776H13.1043C13.2159 13.2776 13.3069 13.3686 13.3069 13.4802V13.7435ZM13.3069 12.323C13.3069 12.4345 13.2159 12.5256 13.1043 12.5256H12.3472C12.2356 12.5256 12.1446 12.4346 12.1446 12.323V12.0596C12.1446 11.9481 12.2356 11.8571 12.3472 11.8571H13.1043C13.2159 11.8571 13.3069 11.9481 13.3069 12.0596V12.323ZM13.3069 10.9024C13.3069 11.014 13.2159 11.105 13.1043 11.105H12.3472C12.2356 11.105 12.1446 11.014 12.1446 10.9024V10.639C12.1446 10.5275 12.2356 10.4365 12.3472 10.4365H13.1043C13.2159 10.4365 13.3069 10.5275 13.3069 10.639V10.9024ZM13.493 9.26915C13.493 9.38071 13.402 9.47171 13.2905 9.47171H8.8338C8.72224 9.47171 8.63121 9.38071 8.63121 9.26915V8.47403C8.63121 8.36247 8.72221 8.27144 8.8338 8.27144H13.2905C13.402 8.27144 13.493 8.36244 13.493 8.47403V9.26915ZM0.710449 4.6703H5.95474C6.05142 4.6703 6.13052 4.7494 6.13052 4.84608V5.29034C6.13052 5.38702 6.05145 5.46612 5.95474 5.46612H0.710449C0.61377 5.46612 0.534668 5.38702 0.534668 5.29034V4.84608C0.534668 4.7494 0.61377 4.6703 0.710449 4.6703Z" fill="white"/>
</g>
<defs>
<clipPath id="clip0_1026_211">
<rect width="15" height="15" fill="white" transform="translate(0 0.679688)"/>
</clipPath>
</defs>
</svg>
