<svg width="15" height="16" viewBox="0 0 15 16" fill="none" xmlns="http://www.w3.org/2000/svg">
<g clip-path="url(#clip0_1026_214)">
<path d="M7.50019 4.62061L2.1505 9.03086C2.1505 9.03708 2.14893 9.04624 2.14581 9.05872C2.14274 9.0711 2.14111 9.0801 2.14111 9.08648V13.5523C2.14111 13.7136 2.20006 13.8533 2.31793 13.971C2.43577 14.0887 2.57531 14.148 2.73659 14.148H6.30917V10.5752H8.69123V14.1481H12.2638C12.425 14.1481 12.5648 14.089 12.6824 13.971C12.8003 13.8534 12.8595 13.7136 12.8595 13.5523V9.08648C12.8595 9.06172 12.8561 9.04301 12.8501 9.03086L7.50019 4.62061Z" fill="white"/>
<path d="M14.8966 8.02601L12.8591 6.33269V2.53665C12.8591 2.44987 12.8312 2.3785 12.7752 2.32265C12.7197 2.26686 12.6483 2.23896 12.5614 2.23896H10.775C10.6881 2.23896 10.6168 2.26686 10.5609 2.32265C10.5052 2.3785 10.4773 2.4499 10.4773 2.53665V4.3509L8.20719 2.45284C8.00892 2.29156 7.77318 2.21094 7.50023 2.21094C7.22731 2.21094 6.9916 2.29156 6.79314 2.45284L0.103386 8.02601C0.0413719 8.07554 0.00738298 8.14222 0.00106097 8.22597C-0.00522845 8.30965 0.0164423 8.38275 0.0661385 8.44473L0.642973 9.13324C0.692669 9.18903 0.757714 9.22315 0.838368 9.23563C0.912831 9.24189 0.987294 9.22012 1.06176 9.17052L7.50003 3.80196L13.9384 9.17049C13.9881 9.21376 14.0531 9.23537 14.1338 9.23537H14.1617C14.2423 9.22312 14.3072 9.18877 14.3571 9.13311L14.934 8.44469C14.9836 8.38258 15.0054 8.30962 14.9989 8.22584C14.9926 8.14231 14.9584 8.07564 14.8966 8.02601Z" fill="white"/>
</g>
<defs>
<clipPath id="clip0_1026_214">
<rect width="15" height="15" fill="white" transform="translate(0 0.679688)"/>
</clipPath>
</defs>
</svg>
