<svg width="25" height="24" viewBox="0 0 25 24" fill="none" xmlns="http://www.w3.org/2000/svg">
<g clip-path="url(#clip0_708_245)">
<path d="M23.7493 11.2504H14.2495C13.8355 11.2504 13.4995 10.9145 13.4995 10.5005C13.4995 10.0865 13.8355 9.75049 14.2495 9.75049H23.7493C24.1632 9.75049 24.4992 10.0865 24.4992 10.5005C24.4992 10.9145 24.1632 11.2504 23.7493 11.2504Z" fill="#C9C9C9"/>
<path d="M19.9993 15.0003C19.8072 15.0003 19.6153 14.9272 19.4692 14.7804C19.1763 14.4872 19.1763 14.0123 19.4692 13.7193L22.6892 10.4995L19.4692 7.27952C19.1763 6.98656 19.1763 6.5116 19.4692 6.21864C19.7624 5.92549 20.2373 5.92549 20.5303 6.21864L24.2802 9.96852C24.5731 10.2615 24.5731 10.7364 24.2802 11.0294L20.5303 14.7793C20.3833 14.9272 20.1914 15.0003 19.9993 15.0003Z" fill="#C9C9C9"/>
<path d="M8.49981 24C8.28577 24 8.08271 23.97 7.87983 23.907L1.8619 21.902C1.04307 21.616 0.5 20.853 0.5 20.0002V2.00073C0.5 0.897738 1.39701 0.000732422 2.5 0.000732422C2.71386 0.000732422 2.91692 0.0307608 3.11997 0.0937471L9.13773 2.09869C9.95673 2.38469 10.4996 3.14767 10.4996 4.00055V22C10.4996 23.103 9.6028 24 8.49981 24ZM2.5 1.50069C2.22498 1.50069 1.99995 1.72572 1.99995 2.00073V20.0002C1.99995 20.2131 2.14295 20.411 2.34693 20.4821L8.33667 22.4781C8.3797 22.492 8.43573 22.5 8.49981 22.5C8.77483 22.5 8.99967 22.275 8.99967 22V4.00055C8.99967 3.7876 8.85667 3.58967 8.6527 3.51863L2.66296 1.52266C2.61993 1.50874 2.5639 1.50069 2.5 1.50069Z" fill="#C9C9C9"/>
<path d="M15.7494 8.00054C15.3355 8.00054 14.9995 7.66456 14.9995 7.25057V2.75071C14.9995 2.0617 14.4386 1.50069 13.7496 1.50069H2.49998C2.08599 1.50069 1.75 1.1647 1.75 0.750709C1.75 0.33672 2.08599 0.000732422 2.49998 0.000732422H13.7496C15.2666 0.000732422 16.4994 1.23373 16.4994 2.75071V7.25057C16.4994 7.66456 16.1634 8.00054 15.7494 8.00054Z" fill="#C9C9C9"/>
<path d="M13.7497 21.0001H9.74973C9.33574 21.0001 8.99976 20.6641 8.99976 20.2501C8.99976 19.8361 9.33574 19.5001 9.74973 19.5001H13.7497C14.4387 19.5001 14.9996 18.9391 14.9996 18.2501V13.7502C14.9996 13.3362 15.3356 13.0002 15.7495 13.0002C16.1635 13.0002 16.4995 13.3362 16.4995 13.7502V18.2501C16.4995 19.7671 15.2667 21.0001 13.7497 21.0001Z" fill="#C9C9C9"/>
</g>
<defs>
<clipPath id="clip0_708_245">
<rect width="24" height="24" fill="white" transform="translate(0.5)"/>
</clipPath>
</defs>
</svg>
