<svg width="13" height="14" viewBox="0 0 13 14" fill="none" xmlns="http://www.w3.org/2000/svg">
<path d="M2.84688 12.1769L1.75 4.5H11.75L10.6531 12.1769C10.6105 12.4747 10.462 12.7472 10.2346 12.9444C10.0073 13.1415 9.71651 13.25 9.41562 13.25H4.08438C3.78348 13.25 3.49268 13.1415 3.26536 12.9444C3.03804 12.7472 2.88945 12.4747 2.84688 12.1769V12.1769ZM12.375 2H9.25V1.375C9.25 1.20924 9.18415 1.05027 9.06694 0.933058C8.94973 0.815848 8.79076 0.75 8.625 0.75H4.875C4.70924 0.75 4.55027 0.815848 4.43306 0.933058C4.31585 1.05027 4.25 1.20924 4.25 1.375V2H1.125C0.95924 2 0.800268 2.06585 0.683058 2.18306C0.565848 2.30027 0.5 2.45924 0.5 2.625C0.5 2.79076 0.565848 2.94973 0.683058 3.06694C0.800268 3.18415 0.95924 3.25 1.125 3.25H12.375C12.5408 3.25 12.6997 3.18415 12.8169 3.06694C12.9342 2.94973 13 2.79076 13 2.625C13 2.45924 12.9342 2.30027 12.8169 2.18306C12.6997 2.06585 12.5408 2 12.375 2V2Z" fill="#E21B1B"/>
</svg>
